<?xml version="1.0" encoding="UTF-8"?>
<svg width="32px" height="32px" viewBox="0 0 32 32" version="1.1" xmlns="http://www.w3.org/2000/svg" xmlns:xlink="http://www.w3.org/1999/xlink">
    <title>切片</title>
    <g id="页面-1" stroke="none" stroke-width="1" fill="none" fill-rule="evenodd">
        <g id="我的" transform="translate(-36.000000, -223.000000)" stroke-width="1.5">
            <g id="编组-4" transform="translate(36.000000, 223.000000)">
                <g id="more_virtual_order" transform="translate(7.000000, 4.000000)">
                    <path d="M4.6666667,2.91666667 L0.58333333,2.91666667 C0.26115833,2.91666667 0,3.17783667 0,3.5 L0,23.3333333 C0,23.6555083 0.26115833,23.9166667 0.58333333,23.9166667 L16.9166667,23.9166667 C17.2388417,23.9166667 17.5,23.6555083 17.5,23.3333333 L17.5,3.5 C17.5,3.17783667 17.2388417,2.91666667 16.9166667,2.91666667 L12.8333333,2.91666667" id="路径" stroke="#333333"></path>
                    <path d="M4.6666667,5.83333333 L4.6666667,2.91666667 L6.971125,2.91666667 C6.98705,2.91666667 7,2.90374 7,2.88779167 L7,1.75 C7,0.78350417 7.783475,0 8.75,0 C9.716525,0 10.5,0.78350417 10.5,1.75 L10.5,2.88779167 C10.5,2.90374 10.51295,2.91666667 10.528875,2.91666667 L12.8333333,2.91666667 L12.8333333,5.83333333 C12.8333333,6.15550833 12.572175,6.41666667 12.25,6.41666667 L5.25,6.41666667 C4.927825,6.41666667 4.6666667,6.15550833 4.6666667,5.83333333 Z" id="路径" stroke="#333333"></path>
                    <line x1="5.1666667" y1="12.5" x2="12.1666667" y2="12.5" id="路径" stroke="#0092D8"></line>
                    <line x1="5.1666667" y1="17.1666667" x2="12.1666667" y2="17.1666667" id="路径" stroke="#0092D8"></line>
                </g>
            </g>
        </g>
    </g>
</svg>