<?xml version="1.0" encoding="UTF-8"?>
<svg width="32px" height="32px" viewBox="0 0 32 32" version="1.1" xmlns="http://www.w3.org/2000/svg" xmlns:xlink="http://www.w3.org/1999/xlink">
    <title>切片</title>
    <g id="页面-1" stroke="none" stroke-width="1" fill="none" fill-rule="evenodd">
        <g id="我的" transform="translate(-307.000000, -223.000000)" fill-rule="nonzero" stroke-width="0.4">
            <g id="编组" transform="translate(307.000000, 223.000000)">
                <g id="more_order_5" transform="translate(6.000000, 6.000000)">
                    <path d="M19.8457143,2.0161626 C19.8457143,0.90254034 18.943174,-1.77635684e-15 17.8295517,-1.77635684e-15 L13.0716248,-1.77635684e-15 C11.9580026,-1.77635684e-15 11.0554622,0.90254034 11.0554622,2.0161626 L11.0554622,6.77408947 C11.0554622,7.88771177 11.9580026,8.79025207 13.0716248,8.79025207 L17.8295517,8.79025207 C18.943174,8.79025207 19.8457143,7.88771177 19.8457143,6.77408947 L19.8457143,2.0161626 Z M18.8445378,6.77378987 C18.8445378,7.33446797 18.3900328,7.78907567 17.8295517,7.78907567 L13.0716248,7.78907567 C12.5111437,7.78907567 12.0566387,7.33446797 12.0566387,6.77378987 L12.0566387,2.01646218 C12.0566387,1.45578409 12.5111437,1.00117647 13.0716248,1.00117647 L17.8295517,1.00117647 C18.3900328,1.00117647 18.8445378,1.45578409 18.8445378,2.01646218 L18.8445378,6.77378987 Z" id="Shape" stroke="#333333" fill="#333333"></path>
                    <path d="M8.79025207,2.0161626 C8.79025207,0.90254034 7.88771177,-1.77635684e-15 6.77408947,-1.77635684e-15 L2.0161626,-1.77635684e-15 C0.90254034,-1.77635684e-15 -1.77635684e-15,0.90254034 -1.77635684e-15,2.0161626 L-1.77635684e-15,6.77408947 C-1.77635684e-15,7.88771177 0.90254034,8.79025207 2.0161626,8.79025207 L6.77408947,8.79025207 C7.88771177,8.79025207 8.79025207,7.88771177 8.79025207,6.77408947 L8.79025207,2.0161626 Z M7.78907567,6.77378987 C7.78907567,7.33446797 7.33457067,7.78907567 6.77408947,7.78907567 L2.0161626,7.78907567 C1.45568147,7.78907567 1.00117647,7.33446797 1.00117647,6.77378987 L1.00117647,2.01646218 C1.00117647,1.45578409 1.45568147,1.00117647 2.0161626,1.00117647 L6.77408947,1.00117647 C7.33457067,1.00117647 7.78907567,1.45578409 7.78907567,2.01646218 L7.78907567,6.77378987 Z" id="Shape" stroke="#333333" fill="#333333"></path>
                    <path d="M8.79025207,13.0719244 C8.79025207,11.9582407 7.88765027,11.0554622 6.77408947,11.0554622 L2.0161626,11.0554622 C0.90260179,11.0554622 -1.77635684e-15,11.9582407 -1.77635684e-15,13.0719244 L-1.77635684e-15,17.8292521 C-1.77635684e-15,18.9429359 0.90260179,19.8457143 2.0161626,19.8457143 L6.77408947,19.8457143 C7.88765027,19.8457143 8.79025207,18.9429359 8.79025207,17.8292521 L8.79025207,13.0719244 Z M7.78907567,17.8295517 C7.78907567,18.3899815 7.33451937,18.8445378 6.77408947,18.8445378 L2.0161626,18.8445378 C1.45573277,18.8445378 1.00117647,18.3899815 1.00117647,17.8295517 L1.00117647,13.0716248 C1.00117647,12.511195 1.45573277,12.0566387 2.0161626,12.0566387 L6.77408947,12.0566387 C7.33451937,12.0566387 7.78907567,12.511195 7.78907567,13.0716248 L7.78907567,17.8295517 Z" id="Shape" stroke="#333333" fill="#333333"></path>
                    <path d="M10.5696389,16.2377276 L14.7361328,16.2377276 L14.7361328,20.4042215 C14.7361328,20.7277562 14.9991097,20.990733 15.3226443,20.990733 C15.646179,20.990733 15.9091558,20.7277562 15.9091558,20.4042215 L15.9091558,16.2377276 L20.0756497,16.2377276 C20.3991843,16.2377276 20.6621612,15.9747508 20.6621612,15.6512161 C20.6621612,15.3276815 20.3991843,15.0647047 20.0756497,15.0647047 L15.9091558,15.0647047 L15.9091558,10.8982108 C15.9091558,10.5746761 15.646179,10.3116993 15.3226443,10.3116993 C14.9991097,10.3116993 14.7361328,10.5746761 14.7361328,10.8982108 L14.7361328,15.0647047 L10.5696389,15.0647047 C10.2461043,15.0647047 9.98312751,15.3276815 9.98312751,15.6512161 C9.98312751,15.9747508 10.2461043,16.2377276 10.5696389,16.2377276 Z" id="Path" stroke="#0092D8" fill="#0092D8" transform="translate(15.322644, 15.651216) rotate(-45.000000) translate(-15.322644, -15.651216) "></path>
                </g>
            </g>
        </g>
    </g>
</svg>