<?xml version="1.0" encoding="UTF-8"?>
<svg width="16px" height="16px" viewBox="0 0 16 16" version="1.1" xmlns="http://www.w3.org/2000/svg" xmlns:xlink="http://www.w3.org/1999/xlink">
    <title>切片</title>
    <g id="页面-1" stroke="none" stroke-width="1" fill="none" fill-rule="evenodd">
        <g id="我的" transform="translate(-11.000000, -388.000000)" fill="#333333" fill-rule="nonzero">
            <g id="编组-6" transform="translate(11.000000, 385.000000)">
                <g id="more_talk" transform="translate(0.000000, 3.000000)">
                    <path d="M14.9269333,7.04182973 C14.8554667,3.14652327 11.8981333,0 8.26666667,0 L7.73333333,0 C4.10186667,0 1.14453333,3.14652327 1.07306667,7.0412852 C0.4352,7.41867193 0,8.11517647 0,8.92059493 L0,10.0097342 C0,11.2110547 0.9568,12.1880127 2.13333333,12.1880127 C3.30986667,12.1880127 4.26666667,11.2110547 4.26666667,10.0097342 L4.26666667,8.92059493 C4.26497207,7.72669267 3.32281094,6.75642653 2.1536,6.74449473 C2.36213333,3.58871379 4.78186667,1.08913924 7.73333333,1.08913924 L8.26666667,1.08913924 C11.2186667,1.08913924 13.6378667,3.58871379 13.8464,6.74449473 C12.6771891,6.75642653 11.7350279,7.72669267 11.7333333,8.92059493 L11.7333333,10.0097342 C11.7333333,10.9932269 12.3786667,11.8166162 13.2565333,12.0861781 C12.4642602,13.1510218 11.3329187,13.9002111 10.0576,14.2045539 C9.8770388,13.6516698 9.3707868,13.2783403 8.8,13.2771519 C8.06362033,13.2771519 7.46666667,13.8866822 7.46666667,14.6385759 C7.46666667,15.3904697 8.06362033,16 8.8,16 C9.26187033,15.9993726 9.6902486,15.7537585 9.9312,15.3514176 C11.8766471,15.0039004 13.5732065,13.7985605 14.5685333,12.0567714 C15.3994667,11.7594364 16,10.958919 16,10.0097342 L16,8.92059493 C16,8.11517647 15.5648,7.41867193 14.9269333,7.04182973 Z M3.2,8.92059493 L3.2,10.0097342 C3.2,10.6103945 2.7216,11.0988734 2.13333333,11.0988734 C1.54506667,11.0988734 1.06666667,10.6103945 1.06666667,10.0097342 L1.06666667,8.92059493 C1.06666667,8.31993467 1.54506667,7.83145573 2.13333333,7.83145573 C2.7216,7.83145573 3.2,8.31993467 3.2,8.92059493 Z M14.9333333,10.0097342 C14.9333333,10.5935128 14.48,11.0678329 13.9146667,11.0939723 L13.8730667,11.0738232 C13.8693333,11.0825363 13.8634667,11.0896157 13.8597333,11.0977843 C13.2737548,11.0938954 12.8005736,10.6080705 12.8,10.0097342 L12.8,8.92059493 C12.8,8.31993467 13.2784,7.83145573 13.8666667,7.83145573 C14.4549333,7.83145573 14.9333333,8.31993467 14.9333333,8.92059493 L14.9333333,10.0097342 Z" id="形状"></path>
                </g>
            </g>
        </g>
    </g>
</svg>