<?xml version="1.0" encoding="UTF-8"?>
<svg width="16px" height="16px" viewBox="0 0 16 16" version="1.1" xmlns="http://www.w3.org/2000/svg" xmlns:xlink="http://www.w3.org/1999/xlink">
    <title>切片</title>
    <g id="页面-1" stroke="none" stroke-width="1" fill="none" fill-rule="evenodd">
        <g id="我的" transform="translate(-11.000000, -331.000000)" fill="#333333" fill-rule="nonzero">
            <g id="编组-5" transform="translate(11.000000, 328.000000)">
                <g id="more_address" transform="translate(0.000000, 3.000000)">
                    <path d="M15.2803728,14.2666667 L14.057943,10.2666667 C13.8542047,9.73333333 13.3788153,9.33333333 12.7676004,9.33333333 L11.6809961,9.33333333 C11.6809961,9.33333333 11.6809961,9.4 11.6130833,9.4 C12.4280365,8.2 13.0392514,6.73333333 13.1071642,5.33333333 C13.1071642,2.4 10.6623046,0 7.67414282,0 C4.685981,0 2.24112135,2.4 2.24112135,5.33333333 C2.17320857,6.73333333 2.78442349,8.2 3.5993767,9.4 L3.5993767,9.33333333 L2.58068519,9.33333333 C1.96947027,9.33333333 1.42616813,9.73333333 1.29034259,10.2666667 L0.0679127575,14.2666667 C0,14.4 0,14.5333333 0,14.6666667 C0,15.4 0.611214913,16 1.35825536,16 L13.9900302,16 C14.1258558,16 14.2616813,16 14.3975068,15.9333333 C15.0766345,15.7333333 15.4841112,15 15.2803728,14.2666667 Z M7.67414282,1 C10.1190025,1 12.0884727,2.93333333 12.0884727,5.33333333 C12.0205599,6.73333333 11.2735195,8.33333333 10.1190025,9.73333333 C9.16822367,10.8666667 8.01370664,11.6666667 7.67414282,11.6666667 C7.26666621,11.6666667 6.11214913,10.8666667 5.16137036,9.73333333 C3.93894054,8.33333333 3.1919001,6.73333333 3.25981287,5.33333333 C3.25981287,2.93333333 5.22928314,1 7.67414282,1 Z M14.1258558,15 L1.35825536,15 C1.15451705,15 1.01869152,14.8666667 1.01869152,14.6666667 L1.01869152,14.6 L2.24112135,10.6 C2.30903412,10.4666667 2.44485965,10.3333333 2.58068519,10.3333333 L4.34641715,10.3333333 L4.34641715,10.2666667 C5.56884697,11.6666667 6.99501512,12.6666667 7.74205554,12.6666667 C8.48909603,12.6666667 9.84735137,11.7333333 11.0018684,10.2666667 L11.0018684,10.3333333 L12.8355131,10.3333333 C12.9713387,10.3333333 13.1071642,10.4 13.175077,10.6 L14.3975068,14.6 C14.3975068,14.7333333 14.2616813,14.9333333 14.1258558,15 Z" id="形状"></path>
                    <path d="M7.66649999,6.66666667 C8.61092392,6.66666667 9.33313042,5.94444444 9.33313042,5 C9.33313042,4.05555556 8.61092392,3.33333333 7.66649999,3.33333333 C6.72207605,3.33333333 5.99986955,4.05555556 5.99986955,5 C5.99986955,5.94444444 6.72207605,6.66666667 7.66649999,6.66666667 Z M7.66649999,4.16666667 C8.11093479,4.16666667 8.4998152,4.55555556 8.4998152,5 C8.4998152,5.44444444 8.11093479,5.83333333 7.66649999,5.83333333 C7.22206518,5.83333333 6.83318477,5.44444444 6.83318477,5 C6.83318477,4.55555556 7.22206518,4.16666667 7.66649999,4.16666667 Z" id="形状"></path>
                </g>
            </g>
        </g>
    </g>
</svg>