<?xml version="1.0" encoding="UTF-8"?>
<svg width="16px" height="16px" viewBox="0 0 16 16" version="1.1" xmlns="http://www.w3.org/2000/svg" xmlns:xlink="http://www.w3.org/1999/xlink">
    <title>切片</title>
    <g id="页面-1" stroke="none" stroke-width="1" fill="none" fill-rule="evenodd">
        <g id="我的" transform="translate(-11.000000, -502.000000)" fill="#333333" fill-rule="nonzero">
            <g id="编组-8" transform="translate(11.000000, 499.000000)">
                <g id="ic/我的/" transform="translate(0.000000, 3.000000)">
                    <g id="资质认证" transform="translate(1.330897, 0.500000)">
                        <path d="M5.5002492,10.0672292 C5.37186042,10.0672292 5.24347167,10.0188505 5.1448542,9.92023229 L3.37346137,8.14882612 C3.17808715,7.95345043 3.17808715,7.63526718 3.37346137,7.43803079 C3.56883558,7.2426551 3.88701643,7.2426551 4.08425134,7.43803079 L5.5002492,8.8540393 L9.61799327,4.73626423 C9.81336749,4.54088854 10.1315483,4.54088854 10.3287833,4.73626423 C10.5241575,4.93163991 10.5241575,5.24982316 10.3287833,5.44705956 L5.8556442,9.92023227 C5.75702673,10.0188505 5.62863798,10.0672292 5.5002492,10.0672292 Z" id="路径"></path>
                        <path d="M6.36733856,15 L6.35431361,15 C6.29663171,15 6.23894979,14.9906964 6.18498929,14.9702285 C6.12358597,14.9478998 4.65176691,14.4120122 3.15948008,13.4630446 C2.26634083,12.8955248 1.55182943,12.2963727 1.03269225,11.6804741 C0.347952161,10.8673391 0,10.0207112 0,9.16477964 L0,2.79181097 C0,2.58341026 0.128388775,2.39547745 0.32376297,2.32104861 L6.37478138,0.0323620608 C6.4920059,-0.01229524 6.62039468,-0.0104345259 6.7357585,0.0360835071 L12.4983673,2.32663079 C12.6900201,2.40292034 12.8146875,2.5871317 12.8146875,2.79367171 L12.8146875,9.16664037 C12.8146875,10.0244327 12.4611532,10.8710606 11.7652489,11.6860563 C11.2386689,12.3000942 10.5129932,12.8992462 9.60682904,13.4667661 C8.09221373,14.4157337 6.59806619,14.9516213 6.53666287,14.9739499 C6.48084167,14.9906964 6.42502046,15 6.36733856,15 Z M1.01966731,3.13976577 L1.01966731,9.16477966 C1.01966731,10.5993954 2.46543648,11.8330533 3.69536364,12.614556 C4.81923053,13.3290727 5.95054025,13.8016958 6.36175643,13.9635785 C6.78041544,13.8016958 7.94335719,13.3234906 9.08769184,12.6033916 C10.330644,11.8237496 11.8117666,10.5938132 11.8117666,9.16477964 L11.8117666,3.13418361 L6.54596642,1.04087275 L1.01966731,3.13976577 Z" id="形状"></path>
                    </g>
                </g>
            </g>
        </g>
    </g>
</svg>