<?xml version="1.0" encoding="UTF-8"?>
<svg width="24px" height="24px" viewBox="0 0 24 24" version="1.1" xmlns="http://www.w3.org/2000/svg" xmlns:xlink="http://www.w3.org/1999/xlink">
    <title>切片</title>
    <g id="页面-1" stroke="none" stroke-width="1" fill="none" fill-rule="evenodd">
        <g id="首页" transform="translate(-90.000000, -733.000000)" stroke="#0092D8" stroke-width="1.5">
            <g id="底部导航栏" transform="translate(0.000000, 729.000000)">
                <g id="底部导航栏模块" transform="translate(90.000000, 4.000000)">
                    <g id="图标／tab／tab_1_on" transform="translate(1.000000, 2.000000)">
                        <path d="M8.0490704,20.3997323 L1.09544692,20.3997323 C0.36514897,20.3253019 0,19.9325455 0,19.2214632 C0,18.519582 0.00434694,15.3681043 0.01304083,9.76703018 C0.01378895,9.62665008 0.07351053,9.49304818 0.177004,9.39819528 L10.3313416,0.256796652 C10.7115052,-0.0854439877 11.288652,-0.0856186877 11.6690227,0.256391742 L21.8343078,9.39651038 C21.9397701,9.49133688 22,9.62648948 22,9.76831448 L22,19.2214632 C22.0473345,20.0069759 21.7342871,20.3997323 21.060858,20.3997323 C20.4132415,20.3997323 18.0357468,20.3872014 13.9283738,20.3621395 C13.6522317,20.3618046 13.428653,20.1376684 13.4289968,19.8615262 L13.4289964,13.1527622 C13.4289964,12.8766198 13.2051388,12.6527622 12.9289964,12.6527622 L9.0820396,12.6527622 C8.8068506,12.6527622 8.5833898,12.8751341 8.5820456,13.1503198 L8.5490644,19.9021746 C8.5477202,20.1773604 8.3242595,20.3997323 8.0490704,20.3997323 Z" id="路径-12"></path>
                    </g>
                </g>
            </g>
        </g>
    </g>
</svg>