<?xml version="1.0" encoding="UTF-8"?>
<svg width="18px" height="18px" viewBox="0 0 18 18" version="1.1" xmlns="http://www.w3.org/2000/svg" xmlns:xlink="http://www.w3.org/1999/xlink">
    <title>切片</title>
    <g id="页面-1" stroke="none" stroke-width="1" fill="none" fill-rule="evenodd">
        <g id="详情" transform="translate(-47.000000, -732.000000)" fill="#545658" fill-rule="nonzero">
            <g id="编组-8" transform="translate(0.000000, 722.000000)">
                <g id="编组-6" transform="translate(36.000000, 10.000000)">
                    <g id="xiaoxi" transform="translate(11.000000, 0.000000)">
                        <path d="M7.8,9.59999982 L7.8,9.6 C7.8,10.2627418 8.33725818,10.8 9,10.8 C9.66274182,10.8 10.2,10.2627418 10.2,9.6 L10.2,9.6 C10.2,8.93725818 9.66274182,8.4 9,8.4 C8.33725818,8.4 7.8,8.93725818 7.8,9.6 L7.8,9.59999982 Z" id="路径"></path>
                        <path d="M12.6,9.59999982 L12.6,9.6 C12.6,10.2627418 13.1372582,10.8 13.8,10.8 C14.4627418,10.8 15,10.2627418 15,9.6 L15,9.6 C15,8.93725818 14.4627418,8.4 13.8,8.4 C13.1372582,8.4 12.6,8.93725818 12.6,9.6 L12.6,9.59999982 Z" id="路径"></path>
                        <path d="M3,9.59999982 L3,9.6 C3,10.2627418 3.53725818,10.8 4.2,10.8 C4.86274182,10.8 5.4,10.2627418 5.4,9.6 L5.4,9.6 C5.4,8.93725818 4.86274182,8.4 4.2,8.4 C3.53725818,8.4 3,8.93725818 3,9.6 L3,9.59999982 Z" id="路径"></path>
                        <path d="M8.99426263,1.23812949e-05 L8.99426315,1.23812949e-05 C4.02905777,-0.00218209774 0.00219665466,4.02547618 8.78608853e-07,8.99602334 C-0.00091718425,11.0757082 0.717657167,13.0915493 2.0335639,14.7008261 C2.32913558,15.060826 2.30943069,15.277812 1.61483749,16.0076731 C1.29956091,16.3430144 0.866056703,16.7967127 1.1222186,17.3736986 C1.37838049,17.9506846 2.16656931,18 2.68381845,18 C2.75278506,18 9.58047942,18 9.90067082,17.9556165 L9.90067131,17.9556164 C14.8413817,17.4626521 18.4474374,13.0534657 17.9550081,8.10740489 C17.4962591,3.49967011 13.619808,-0.00760410072 8.9942496,1.23812949e-05 L8.99426263,1.23812949e-05 Z M9.75782121,16.4613626 C9.42284149,16.4613626 4.77252814,16.4958831 3.1715185,16.5008146 L3.17151849,16.5008146 C3.87487196,15.7186797 3.87487196,14.5311688 3.1715185,13.7490304 L3.17151868,13.7490306 C0.551234566,10.5427289 1.0235059,5.81708013 4.22633466,3.19396773 C7.42917923,0.570855333 12.1497328,1.04363642 14.7700169,4.24992226 C17.390301,7.45622392 16.9180296,12.1818727 13.7152009,14.8049851 C12.5786733,15.7357957 11.1939856,16.3117745 9.73320344,16.4613555 L9.75782121,16.4613626 Z" id="形状"></path>
                    </g>
                </g>
            </g>
        </g>
    </g>
</svg>